<svg width="1440" height="189" viewBox="0 0 1440 189" fill="none" xmlns="http://www.w3.org/2000/svg">
<g opacity="0.1">
<mask id="mask0_2_43" style="mask-type:luminance" maskUnits="userSpaceOnUse" x="0" y="1" width="1440" height="189">
<path fill-rule="evenodd" clip-rule="evenodd" d="M0 67.3677C0 67.3677 283.196 160.816 548.438 160.816C813.679 160.816 949.747 33.7123 1106.44 6.44092C1263.13 -20.8305 1440 67.3677 1440 67.3677V189.412H0V67.3677Z" fill="white"/>
</mask>
<g mask="url(#mask0_2_43)">
<g filter="url(#filter0_d_2_43)">
<path fill-rule="evenodd" clip-rule="evenodd" d="M0 67.3677C0 67.3677 283.196 160.816 548.438 160.816C813.679 160.816 949.747 33.7123 1106.44 6.44092C1263.13 -20.8305 1440 67.3677 1440 67.3677V189.412H0V67.3677Z" fill="#DB1A1A"/>
</g>
<ellipse cx="796.5" cy="302.537" rx="253.5" ry="231.182" fill="#372B4B"/>
<ellipse cx="538.5" cy="199.392" rx="494.5" ry="325.863" fill="url(#paint0_linear_2_43)"/>
<ellipse cx="1114.5" cy="12.046" rx="255.5" ry="316.102" fill="url(#paint1_linear_2_43)"/>
<ellipse cx="1440" cy="128.826" rx="210" ry="139.626" fill="#D21958"/>
<ellipse cx="264.5" cy="165.055" rx="494.5" ry="325.863" fill="#B2EBF2"/>
<ellipse cx="169" cy="85.2152" rx="252" ry="215.954" fill="url(#paint2_linear_2_43)"/>
<ellipse cy="-32.0732" rx="217" ry="144.877" fill="#D1C4E9"/>
</g>
</g>
<defs>
<filter id="filter0_d_2_43" x="-4" y="1.20789" width="1448" height="196.204" filterUnits="userSpaceOnUse" color-interpolation-filters="sRGB">
<feFlood flood-opacity="0" result="BackgroundImageFix"/>
<feColorMatrix in="SourceAlpha" type="matrix" values="0 0 0 0 0 0 0 0 0 0 0 0 0 0 0 0 0 0 127 0" result="hardAlpha"/>
<feOffset dy="4"/>
<feGaussianBlur stdDeviation="2"/>
<feComposite in2="hardAlpha" operator="out"/>
<feColorMatrix type="matrix" values="0 0 0 0 0 0 0 0 0 0 0 0 0 0 0 0 0 0 0.25 0"/>
<feBlend mode="normal" in2="BackgroundImageFix" result="effect1_dropShadow_2_43"/>
<feBlend mode="normal" in="SourceGraphic" in2="effect1_dropShadow_2_43" result="shape"/>
</filter>
<linearGradient id="paint0_linear_2_43" x1="766.226" y1="-589.568" x2="-599.332" y2="339.3" gradientUnits="userSpaceOnUse">
<stop stop-color="#00BCD4"/>
<stop offset="1" stop-color="#673AB7"/>
</linearGradient>
<linearGradient id="paint1_linear_2_43" x1="1103.19" y1="-761.975" x2="425.345" y2="-71.4545" gradientUnits="userSpaceOnUse">
<stop stop-color="#673AB7"/>
<stop offset="1" stop-color="#D1C4E9"/>
<stop offset="1" stop-color="#D1C4E9"/>
</linearGradient>
<linearGradient id="paint2_linear_2_43" x1="56.927" y1="-232.075" x2="-127.827" y2="167.345" gradientUnits="userSpaceOnUse">
<stop stop-color="#E91E63"/>
<stop offset="1" stop-color="#F8BBD0"/>
</linearGradient>
</defs>
</svg>
